<svg width="56" height="56" viewBox="0 0 56 56" fill="none" xmlns="http://www.w3.org/2000/svg">
<rect width="56" height="56" rx="12" fill="#1D7E73"/>
<rect width="56" height="56" rx="12" fill="black" fill-opacity="0.1"/>
<path d="M13.5404 44.8C14.159 44.416 14.8737 43.9573 15.6844 43.424C16.495 42.8907 17.327 42.2933 18.1804 41.632C19.055 40.9493 19.9084 40.2347 20.7404 39.488C21.5937 38.72 22.351 37.9413 23.0124 37.152C23.6737 36.3413 24.207 35.52 24.6124 34.688C25.0177 33.856 25.2204 33.0453 25.2204 32.256C25.2204 31.232 24.9004 30.4213 24.2604 29.824C23.6204 29.2053 22.7564 28.896 21.6684 28.896C20.6017 28.896 19.6524 29.248 18.8204 29.952C18.0097 30.656 17.487 31.7333 17.2524 33.184L13.3484 32.32C13.4977 31.1893 13.807 30.1867 14.2764 29.312C14.7457 28.4373 15.3324 27.7013 16.0364 27.104C16.7617 26.4853 17.6044 26.016 18.5644 25.696C19.5244 25.376 20.559 25.216 21.6684 25.216C22.799 25.216 23.8337 25.3867 24.7724 25.728C25.711 26.048 26.5217 26.5067 27.2044 27.104C27.887 27.7013 28.4097 28.4267 28.7724 29.28C29.1564 30.112 29.3484 31.0293 29.3484 32.032C29.3484 33.2907 29.0284 34.528 28.3884 35.744C27.7697 36.9387 26.9804 38.0693 26.0204 39.136C25.0604 40.2027 24.015 41.184 22.8844 42.08C21.775 42.976 20.719 43.744 19.7164 44.384H29.8924V48H13.5404V44.8ZM40.8136 25.6V48H36.8136V32.32C36.131 32.8747 35.3416 33.3013 34.4456 33.6C33.571 33.8987 32.6216 34.048 31.5976 34.048V30.752C32.4083 30.7093 33.1443 30.56 33.8056 30.304C34.467 30.0267 35.0323 29.664 35.5016 29.216C35.9923 28.768 36.3656 28.2347 36.6216 27.616C36.899 26.9973 37.0376 26.3253 37.0376 25.6H40.8136Z" fill="white"/>
<path d="M15.1528 7.4H17.6368L20.7148 17.534H20.8768L23.9548 7.4H26.4388L22.3348 20H19.2388L15.1528 7.4ZM28.1224 7.4H30.4804V20H28.1224V7.4ZM35.8228 9.488H32.2948V7.4H41.7268V9.488H38.1808V20H35.8228V9.488Z" fill="white"/>
</svg>
