<svg width="56" height="56" viewBox="0 0 56 56" fill="none" xmlns="http://www.w3.org/2000/svg">
<rect width="56" height="56" rx="12" fill="#FE8331"/>
<rect width="56" height="56" rx="12" fill="black" fill-opacity="0.1"/>
<path d="M29.5514 45.028C27.1194 45.028 24.8794 44.596 22.8314 43.732C20.8154 42.868 19.0714 41.668 17.5994 40.132C16.1594 38.596 15.0234 36.788 14.1914 34.708C13.3914 32.596 12.9914 30.292 12.9914 27.796V27.604C12.9914 25.108 13.3914 22.82 14.1914 20.74C15.0234 18.628 16.1754 16.804 17.6474 15.268C19.1194 13.732 20.8634 12.532 22.8794 11.668C24.8954 10.804 27.1194 10.372 29.5514 10.372C32.4634 10.372 35.0554 11.028 37.3274 12.34C39.6314 13.652 41.5034 15.412 42.9434 17.62L38.1434 21.076C37.1834 19.444 36.0154 18.212 34.6394 17.38C33.2954 16.548 31.6954 16.132 29.8394 16.132H29.7914C28.2234 16.132 26.7994 16.42 25.5194 16.996C24.2714 17.54 23.1994 18.324 22.3034 19.348C21.4074 20.34 20.7194 21.54 20.2394 22.948C19.7594 24.356 19.5194 25.908 19.5194 27.604V27.844C19.5194 29.508 19.7594 31.044 20.2394 32.452C20.7194 33.86 21.4074 35.076 22.3034 36.1C23.1994 37.092 24.2714 37.876 25.5194 38.452C26.7994 38.996 28.2074 39.268 29.7434 39.268H29.7914C31.7114 39.268 33.3914 38.836 34.8314 37.972C36.2714 37.108 37.4394 35.908 38.3354 34.372L42.9914 37.78C41.6474 39.988 39.8074 41.748 37.4714 43.06C35.1674 44.372 32.5434 45.028 29.5994 45.028H29.5514Z" fill="white"/>
</svg>
