<svg width="56" height="56" viewBox="0 0 56 56" fill="none" xmlns="http://www.w3.org/2000/svg">
<rect width="56" height="56" rx="12" fill="#B80F89"/>
<rect width="56" height="56" rx="12" fill="black" fill-opacity="0.1"/>
<path d="M10.023 16.2H14.477V36.056H24.303V40H10.023V16.2ZM36.8466 40.34C35.1919 40.34 33.6733 40.0453 32.2906 39.456C30.9306 38.844 29.7519 38.0053 28.7546 36.94C27.7799 35.852 27.0206 34.5713 26.4766 33.098C25.9326 31.602 25.6606 29.97 25.6606 28.202V28.032C25.6606 26.264 25.9553 24.6433 26.5446 23.17C27.1339 21.674 27.9499 20.382 28.9926 19.294C30.0353 18.206 31.2706 17.356 32.6986 16.744C34.1266 16.132 35.6906 15.826 37.3906 15.826H37.4586C39.6346 15.826 41.5386 16.302 43.1706 17.254C44.8253 18.206 46.1853 19.498 47.2506 21.13L43.6466 23.408C42.9893 22.2293 42.1733 21.334 41.1986 20.722C40.2466 20.0873 39.0906 19.77 37.7306 19.77H37.6626C36.5519 19.77 35.5433 19.974 34.6366 20.382C33.7299 20.79 32.9479 21.3567 32.2906 22.082C31.6559 22.8073 31.1573 23.68 30.7946 24.7C30.4546 25.6973 30.2846 26.808 30.2846 28.032V28.236C30.2846 29.46 30.4546 30.5707 30.7946 31.568C31.1573 32.5653 31.6559 33.4267 32.2906 34.152C32.9479 34.8547 33.7299 35.41 34.6366 35.818C35.5433 36.2033 36.5519 36.396 37.6626 36.396H37.7306C38.6599 36.396 39.4986 36.2713 40.2466 36.022C40.9946 35.7727 41.6293 35.4327 42.1506 35.002C42.6719 34.5487 43.0686 34.0273 43.3406 33.438C43.6353 32.8487 43.7826 32.2253 43.7826 31.568V31.092H38.4786V27.352H47.9306V40H44.7006C44.5646 39.7507 44.4399 39.3767 44.3266 38.878C44.2359 38.3567 44.1679 37.858 44.1226 37.382C43.3746 38.266 42.3659 38.98 41.0966 39.524C39.8273 40.068 38.4899 40.34 37.0846 40.34H36.8466Z" fill="white"/>
</svg>
