<svg width="56" height="56" viewBox="0 0 56 56" fill="none" xmlns="http://www.w3.org/2000/svg">
<rect width="56" height="56" rx="12" fill="url(#paint0_angular_4_4222)"/>
<rect width="56" height="56" rx="12" fill="black" fill-opacity="0.1"/>
<path d="M25.6971 33.9348L26.0686 31.4239L24.0629 33.0217L17.3029 37.0543L15 32.9457L21.8343 28.913L24.1371 28L21.8343 27.087L15 23.0543L17.3029 18.9457L24.0629 22.9022L26.0686 24.5L25.6971 22.0652V14H30.3029V21.9891L29.9314 24.5761L31.8629 22.9783L38.6971 18.9457L41 23.0543L34.24 27.0109L31.8629 28L34.24 28.9891L41 32.9457L38.6971 37.0543L31.8629 33.0217L29.9314 31.4239L30.3029 34.0109V42H25.6971V33.9348Z" fill="white"/>
<defs>
<radialGradient id="paint0_angular_4_4222" cx="0" cy="0" r="1" gradientUnits="userSpaceOnUse" gradientTransform="translate(28 28) rotate(90) scale(28)">
<stop offset="0.114583" stop-color="#DE1825"/>
<stop offset="0.46875" stop-color="#00609E"/>
<stop offset="0.786458" stop-color="#E5762C"/>
</radialGradient>
</defs>
</svg>
