<svg width="56" height="56" viewBox="0 0 56 56" fill="none" xmlns="http://www.w3.org/2000/svg">
<rect width="56" height="56" rx="12" fill="#515151"/>
<rect width="56" height="56" rx="12" fill="black" fill-opacity="0.1"/>
<path d="M8.75044 10.4H20.8464V13.648H12.4184V18.548H20.2864V21.628H12.4184V26.752H21.1264V30H8.75044V10.4ZM29.5873 30.14C28.9153 30.14 28.2993 30.056 27.7393 29.888C27.1979 29.72 26.7219 29.4587 26.3113 29.104C25.9006 28.7307 25.5833 28.264 25.3593 27.704C25.1353 27.144 25.0233 26.4627 25.0233 25.66V18.24H23.0913V15.888C23.3526 15.7947 23.6513 15.7107 23.9873 15.636C24.3419 15.5613 24.6873 15.5053 25.0233 15.468V12.08L28.4673 11.66V15.44H33.0313V18.24H28.4393V25.016C28.4393 25.8187 28.6166 26.3787 28.9713 26.696C29.3446 26.9947 29.8673 27.144 30.5393 27.144C30.7259 27.144 30.9406 27.1347 31.1833 27.116C31.4259 27.0973 31.6686 27.0787 31.9113 27.06C32.1539 27.0227 32.3873 26.9853 32.6113 26.948C32.8353 26.9107 33.0219 26.8733 33.1713 26.836V29.58C32.7233 29.7853 32.1539 29.9253 31.4633 30C30.7726 30.0933 30.1473 30.14 29.5873 30.14ZM34.2709 15.44H37.9389L41.6349 26.808H41.9149L45.5829 15.44H49.2509L43.9029 30H39.5909L34.2709 15.44Z" fill="white"/>
<path d="M9.54368 46.234C9.31568 46.234 9.09968 46.192 8.89568 46.108C8.69168 46.036 8.51168 45.934 8.35568 45.802C8.21168 45.658 8.09768 45.496 8.01368 45.316C7.92968 45.124 7.88768 44.92 7.88768 44.704V44.596C7.88768 44.392 7.92968 44.2 8.01368 44.02C8.09768 43.84 8.21168 43.684 8.35568 43.552C8.51168 43.408 8.69168 43.3 8.89568 43.228C9.09968 43.144 9.31568 43.102 9.54368 43.102C9.77168 43.102 9.98168 43.144 10.1737 43.228C10.3777 43.3 10.5517 43.408 10.6957 43.552C10.8517 43.684 10.9717 43.84 11.0557 44.02C11.1517 44.2 11.1997 44.392 11.1997 44.596V44.704C11.1997 44.92 11.1517 45.124 11.0557 45.316C10.9717 45.496 10.8517 45.658 10.6957 45.802C10.5517 45.934 10.3777 46.036 10.1737 46.108C9.98168 46.192 9.77168 46.234 9.54368 46.234ZM16.8953 46.18C16.1873 46.18 15.5393 46.066 14.9513 45.838C14.3633 45.598 13.8593 45.274 13.4393 44.866C13.0193 44.446 12.6893 43.948 12.4493 43.372C12.2213 42.796 12.1073 42.166 12.1073 41.482V41.122C12.1073 40.45 12.2273 39.832 12.4673 39.268C12.7073 38.692 13.0373 38.2 13.4573 37.792C13.8893 37.372 14.3933 37.048 14.9693 36.82C15.5453 36.58 16.1753 36.46 16.8593 36.46H17.0033C17.8913 36.46 18.6773 36.64 19.3613 37C20.0453 37.36 20.6153 37.864 21.0713 38.512L19.1633 39.88C18.6593 38.968 17.9573 38.512 17.0573 38.512H17.0213C16.3493 38.512 15.8213 38.752 15.4373 39.232C15.0653 39.7 14.8793 40.366 14.8793 41.23V41.41C14.8793 42.25 15.0833 42.91 15.4913 43.39C15.8993 43.858 16.4333 44.092 17.0933 44.092H17.1833C17.6633 44.092 18.0713 43.972 18.4073 43.732C18.7553 43.48 19.0493 43.138 19.2893 42.706L21.1433 44.164C20.6873 44.812 20.1173 45.31 19.4333 45.658C18.7613 46.006 17.9693 46.18 17.0573 46.18H16.8953ZM27.1676 46.198C26.4356 46.198 25.7576 46.084 25.1336 45.856C24.5096 45.616 23.9696 45.286 23.5136 44.866C23.0696 44.446 22.7216 43.948 22.4696 43.372C22.2176 42.796 22.0916 42.172 22.0916 41.5V41.14C22.0916 40.468 22.2176 39.844 22.4696 39.268C22.7216 38.692 23.0696 38.194 23.5136 37.774C23.9696 37.354 24.5096 37.03 25.1336 36.802C25.7576 36.562 26.4356 36.442 27.1676 36.442H27.3296C28.0616 36.442 28.7396 36.562 29.3636 36.802C29.9876 37.03 30.5216 37.354 30.9656 37.774C31.4216 38.194 31.7756 38.692 32.0276 39.268C32.2796 39.844 32.4056 40.468 32.4056 41.14V41.5C32.4056 42.172 32.2796 42.796 32.0276 43.372C31.7756 43.948 31.4216 44.446 30.9656 44.866C30.5216 45.286 29.9876 45.616 29.3636 45.856C28.7396 46.084 28.0616 46.198 27.3296 46.198H27.1676ZM27.3116 44.2C27.6476 44.2 27.9536 44.134 28.2296 44.002C28.5176 43.858 28.7636 43.666 28.9676 43.426C29.1716 43.174 29.3276 42.88 29.4356 42.544C29.5556 42.196 29.6156 41.818 29.6156 41.41V41.23C29.6156 40.822 29.5556 40.45 29.4356 40.114C29.3276 39.766 29.1716 39.472 28.9676 39.232C28.7636 38.98 28.5176 38.788 28.2296 38.656C27.9536 38.512 27.6476 38.44 27.3116 38.44H27.1856C26.8496 38.44 26.5376 38.512 26.2496 38.656C25.9736 38.788 25.7336 38.98 25.5296 39.232C25.3256 39.472 25.1636 39.766 25.0436 40.114C24.9236 40.45 24.8636 40.822 24.8636 41.23V41.41C24.8636 41.818 24.9236 42.196 25.0436 42.544C25.1636 42.88 25.3256 43.174 25.5296 43.426C25.7336 43.666 25.9736 43.858 26.2496 44.002C26.5376 44.134 26.8496 44.2 27.1856 44.2H27.3116ZM34.3203 36.64H36.4443C36.5043 36.808 36.5583 37.024 36.6063 37.288C36.6663 37.552 36.7023 37.786 36.7143 37.99C37.0863 37.522 37.5303 37.15 38.0463 36.874C38.5623 36.586 39.1263 36.442 39.7383 36.442H39.7563C40.4283 36.442 40.9923 36.586 41.4483 36.874C41.9043 37.15 42.2523 37.552 42.4923 38.08C42.8643 37.576 43.3143 37.174 43.8423 36.874C44.3823 36.574 44.9703 36.424 45.6063 36.424H45.6243C46.6203 36.424 47.3823 36.736 47.9103 37.36C48.4383 37.972 48.7023 38.842 48.7023 39.97V45.982H46.0203V40.456C46.0203 39.784 45.9063 39.322 45.6783 39.07C45.4503 38.818 45.0963 38.686 44.6163 38.674H44.5983C44.0823 38.698 43.6623 38.884 43.3383 39.232C43.0143 39.58 42.8523 40.126 42.8523 40.87V46H40.1703V40.456C40.1703 39.784 40.0563 39.328 39.8283 39.088C39.6003 38.836 39.2403 38.704 38.7483 38.692H38.7303C38.2263 38.704 37.8123 38.89 37.4883 39.25C37.1643 39.598 37.0023 40.138 37.0023 40.87V46H34.3203V36.64Z" fill="white"/>
</svg>
