<svg width="56" height="56" viewBox="0 0 56 56" fill="none" xmlns="http://www.w3.org/2000/svg">
<rect width="56" height="56" rx="12" fill="#006BAF"/>
<rect width="56" height="56" rx="12" fill="black" fill-opacity="0.1"/>
<path d="M16.0945 10.9H28.9105C30.5745 10.9 32.0945 11.108 33.4705 11.524C34.8465 11.908 36.0145 12.484 36.9745 13.252C37.9665 13.988 38.7345 14.868 39.2785 15.892C39.8225 16.916 40.0945 18.052 40.0945 19.3V19.636C40.0945 21.076 39.7745 22.372 39.1345 23.524C38.4945 24.676 37.4705 25.7 36.0625 26.596C37.9185 27.364 39.3265 28.468 40.2865 29.908C41.2785 31.348 41.7745 32.996 41.7745 34.852V35.14C41.7745 36.548 41.5025 37.828 40.9585 38.98C40.4145 40.132 39.6465 41.124 38.6545 41.956C37.6625 42.756 36.4465 43.38 35.0065 43.828C33.5985 44.276 32.0305 44.5 30.3025 44.5H16.0945V10.9ZM28.7665 25.012C30.3985 25.012 31.6625 24.628 32.5585 23.86C33.4545 23.06 33.9025 22.004 33.9025 20.692V20.404C33.9025 19.156 33.4705 18.164 32.6065 17.428C31.7425 16.692 30.4945 16.324 28.8625 16.324H22.1425V25.012H28.7665ZM29.9665 39.076C31.6945 39.076 33.0385 38.676 33.9985 37.876C34.9905 37.076 35.4865 35.988 35.4865 34.612V34.372C35.4865 32.932 34.9745 31.812 33.9505 31.012C32.9585 30.18 31.5985 29.764 29.8705 29.764H22.1425V39.076H29.9665Z" fill="white"/>
</svg>
