<svg width="56" height="56" viewBox="0 0 56 56" fill="none" xmlns="http://www.w3.org/2000/svg">
<rect width="56" height="56" rx="12" fill="#1D7E73"/>
<rect width="56" height="56" rx="12" fill="black" fill-opacity="0.1"/>
<path d="M20.9643 43.84H9.70025V40.704L19.3003 25.6H24.8043V40.416H27.5883V43.84H24.8043V48H20.9643V43.84ZM20.9643 40.416V29.44H20.5803L13.7643 40.064V40.416H20.9643ZM37.693 48.352C35.5383 48.352 33.725 47.872 32.253 46.912C30.781 45.952 29.7783 44.5653 29.245 42.752L32.957 41.888C33.3623 42.848 33.949 43.552 34.717 44C35.485 44.4267 36.477 44.64 37.693 44.64C39.1223 44.64 40.253 44.2667 41.085 43.52C41.917 42.752 42.333 41.7067 42.333 40.384C42.333 39.1893 41.9597 38.2613 41.213 37.6C40.4877 36.9173 39.421 36.576 38.013 36.576C36.8823 36.576 35.837 36.8533 34.877 37.408L33.533 34.944L40.029 29.216H30.333V25.6H45.181V28.704L39.197 33.664C40.221 33.664 41.1703 33.824 42.045 34.144C42.941 34.4427 43.7197 34.8907 44.381 35.488C45.0423 36.064 45.5543 36.7787 45.917 37.632C46.301 38.464 46.493 39.4133 46.493 40.48C46.493 41.6533 46.2797 42.7307 45.853 43.712C45.4477 44.672 44.861 45.4933 44.093 46.176C43.3463 46.8587 42.429 47.392 41.341 47.776C40.253 48.16 39.037 48.352 37.693 48.352Z" fill="white"/>
<path d="M15.1528 7.4H17.6368L20.7148 17.534H20.8768L23.9548 7.4H26.4388L22.3348 20H19.2388L15.1528 7.4ZM28.1224 7.4H30.4804V20H28.1224V7.4ZM35.8228 9.488H32.2948V7.4H41.7268V9.488H38.1808V20H35.8228V9.488Z" fill="white"/>
</svg>
