<svg width="130" height="43" viewBox="0 0 130 43" fill="none" xmlns="http://www.w3.org/2000/svg">
<path fill-rule="evenodd" clip-rule="evenodd" d="M30.8598 35.7599C30.8598 32.3136 33.656 29.5199 37.1052 29.5199C40.5545 29.5199 43.3507 32.3136 43.3507 35.7599C43.3507 39.2062 40.5545 42 37.1052 42C33.656 42 30.8598 39.2062 30.8598 35.7599ZM37.1052 31.7222C34.7381 31.7222 33.0641 33.3948 33.0641 35.7599C33.0641 38.125 34.7381 39.7976 37.1052 39.7976C39.4724 39.7976 41.1464 38.125 41.1464 35.7599C41.1464 33.3948 39.4724 31.7222 37.1052 31.7222Z" fill="white"/>
<path fill-rule="evenodd" clip-rule="evenodd" d="M41.8812 13.4915C45.2778 14.0853 39.138 27.1165 38.2978 28.8645C38.2407 28.9833 38.1168 29.0478 37.9856 29.0331C37.833 29.0159 37.7161 28.8998 37.711 28.7464C37.6421 26.6682 37.3464 12.6985 41.8812 13.4915Z" fill="white"/>
<path d="M48.3539 37.371C48.6657 37.8656 49.1424 38.287 49.7842 38.6351C50.4443 38.9649 51.1044 39.1298 51.7645 39.1298C52.9014 39.1298 53.8091 38.7267 54.4875 37.9206C55.1843 37.0962 55.5327 36.0336 55.5327 34.7328C55.5327 33.432 55.1843 32.3694 54.4875 31.545C53.8091 30.7205 52.9014 30.3083 51.7645 30.3083C51.1044 30.3083 50.4535 30.4824 49.8117 30.8305C49.1699 31.1785 48.684 31.6091 48.3539 32.1221V37.371ZM48.3539 41.3558H45.4659V23.0258H48.3539V29.9236C49.4358 28.4762 50.8569 27.7526 52.6172 27.7526C54.3408 27.7526 55.7527 28.3938 56.8529 29.6762C57.9531 30.9404 58.5032 32.6259 58.5032 34.7328C58.5032 36.8763 57.9531 38.571 56.8529 39.8168C55.7527 41.0626 54.3408 41.6855 52.6172 41.6855C50.8752 41.6855 49.4541 40.971 48.3539 39.542V41.3558Z" fill="white"/>
<path d="M70.9644 41.3558H68.0764V39.597C66.8295 40.9893 65.2617 41.6855 63.3731 41.6855C60.5309 41.6855 59.1098 40.284 59.1098 37.4809V28.0823H61.9978V36.4366C61.9978 37.4076 62.227 38.1038 62.6855 38.5252C63.1439 38.9282 63.804 39.1298 64.6658 39.1298C65.3626 39.1298 66.0135 38.9649 66.6186 38.6351C67.2238 38.3053 67.7097 37.8931 68.0764 37.3985V28.0823H70.9644V41.3558Z" fill="white"/>
<path d="M76.916 41.6855C74.5322 41.6855 72.6344 40.9985 71.2225 39.6244L72.5427 37.5359C73.0378 38.0488 73.7071 38.4885 74.5506 38.855C75.394 39.2214 76.2284 39.4046 77.0535 39.4046C77.897 39.4046 78.5388 39.2397 78.9788 38.9099C79.4373 38.5801 79.6665 38.1496 79.6665 37.6183C79.6665 37.142 79.3914 36.7756 78.8413 36.5191C78.2912 36.2442 77.6219 36.0336 76.8335 35.887C76.045 35.7221 75.2565 35.5297 74.468 35.3099C73.6796 35.0717 73.0103 34.6595 72.4602 34.0732C71.9101 33.487 71.6351 32.7267 71.6351 31.7923C71.6351 30.6564 72.1026 29.7037 73.0378 28.9342C73.973 28.1465 75.2474 27.7526 76.861 27.7526C78.8963 27.7526 80.62 28.3755 82.0319 29.6213L80.8217 31.6549C80.3999 31.1785 79.8407 30.7938 79.1439 30.5007C78.4471 30.2075 77.6953 30.061 76.8885 30.061C76.1367 30.061 75.5316 30.2167 75.0732 30.5282C74.6331 30.8213 74.413 31.206 74.413 31.6824C74.413 32.0488 74.6056 32.3511 74.9906 32.5892C75.394 32.8091 75.8891 32.974 76.4759 33.0839C77.081 33.1938 77.732 33.3496 78.4287 33.5511C79.1255 33.7343 79.7673 33.9541 80.3541 34.2106C80.9592 34.4671 81.4543 34.8885 81.8393 35.4748C82.2428 36.0427 82.4445 36.7389 82.4445 37.5633C82.4445 38.7725 81.9585 39.7618 80.9867 40.5313C80.0149 41.3008 78.658 41.6855 76.916 41.6855Z" fill="white"/>
<path d="M13.3762 26.4974H9.74965L0 0H3.3449L11.5805 23.3081L19.5027 0H22.8476L13.3762 26.4974Z" fill="white"/>
<path d="M23.066 7.15126C22.5965 7.15126 22.1857 6.9877 21.8336 6.6606C21.4815 6.31012 21.3055 5.88956 21.3055 5.39889C21.3055 4.90823 21.4815 4.48766 21.8336 4.13719C22.1857 3.78672 22.5965 3.61148 23.066 3.61148C23.5589 3.61148 23.9814 3.78672 24.3335 4.13719C24.6856 4.48766 24.8616 4.90823 24.8616 5.39889C24.8616 5.88956 24.6856 6.31012 24.3335 6.6606C23.9814 6.9877 23.5589 7.15126 23.066 7.15126ZM24.4039 26.4974H21.7632V9.56952H24.4039V26.4974Z" fill="white"/>
<path d="M31.8546 26.9179C30.6105 26.9179 29.6716 26.5792 29.0378 25.9016C28.404 25.224 28.0872 24.2427 28.0872 22.9576V11.8826H25.2704V9.56952H28.0872V4.94328H30.7279V9.56952H34.1784V11.8826H30.7279V22.3968C30.7279 23.0511 30.8687 23.5768 31.1504 23.974C31.4555 24.3712 31.8898 24.5698 32.4531 24.5698C33.2277 24.5698 33.8263 24.3361 34.2488 23.8688L35.0234 25.8315C34.2488 26.5558 33.1925 26.9179 31.8546 26.9179Z" fill="white"/>
<path d="M48.3539 37.371C48.6657 37.8656 49.1424 38.287 49.7842 38.6351C50.4443 38.9649 51.1044 39.1298 51.7645 39.1298C52.9014 39.1298 53.8091 38.7267 54.4875 37.9206C55.1843 37.0962 55.5327 36.0336 55.5327 34.7328C55.5327 33.432 55.1843 32.3694 54.4875 31.545C53.8091 30.7205 52.9014 30.3083 51.7645 30.3083C51.1044 30.3083 50.4535 30.4824 49.8117 30.8305C49.1699 31.1785 48.684 31.6091 48.3539 32.1221V37.371ZM48.3539 41.3558H45.4659V23.0258H48.3539V29.9236C49.4358 28.4762 50.8569 27.7526 52.6172 27.7526C54.3408 27.7526 55.7527 28.3938 56.8529 29.6762C57.9531 30.9404 58.5032 32.6259 58.5032 34.7328C58.5032 36.8763 57.9531 38.571 56.8529 39.8168C55.7527 41.0626 54.3408 41.6855 52.6172 41.6855C50.8752 41.6855 49.4541 40.971 48.3539 39.542V41.3558Z" fill="#FE8331"/>
<path d="M13.3762 26.4974H9.74965L0 0H3.3449L11.5805 23.3081L19.5027 0H22.8476L13.3762 26.4974Z" fill="#FE8331"/>
<rect x="87" y="25" width="42.7574" height="17.568" rx="8.78401" fill="white" fill-opacity="0.1"/>
<path d="M96.9418 39.4067C96.3492 39.4067 95.8077 39.2994 95.3173 39.0848C94.8371 38.8703 94.4233 38.5689 94.076 38.1806C94.0555 38.3543 94.0198 38.5484 93.9687 38.763C93.9278 38.9673 93.8818 39.141 93.8308 39.2841H92.6354V28.2498H94.1526V32.3417C94.4897 31.9841 94.8933 31.7031 95.3633 31.4988C95.8435 31.2944 96.3697 31.1923 96.9418 31.1923H97.0031C97.5548 31.1923 98.0657 31.2893 98.5356 31.4834C99.0056 31.6776 99.4092 31.9483 99.7464 32.2957C100.094 32.6431 100.364 33.0568 100.559 33.537C100.753 34.0172 100.85 34.5383 100.85 35.1002V35.4987C100.85 36.0606 100.753 36.5817 100.559 37.0619C100.364 37.5421 100.094 37.9559 99.7464 38.3032C99.4092 38.6506 99.0056 38.9214 98.5356 39.1155C98.0657 39.3096 97.5548 39.4067 97.0031 39.4067H96.9418ZM96.7579 38.0734C97.1359 38.0734 97.4782 38.0121 97.7847 37.8894C98.0912 37.7566 98.3517 37.5778 98.5663 37.3531C98.7911 37.1181 98.9648 36.8422 99.0874 36.5255C99.21 36.2088 99.2713 35.8614 99.2713 35.4834V35.1156C99.2713 34.7375 99.21 34.3902 99.0874 34.0734C98.9648 33.7567 98.7911 33.486 98.5663 33.2612C98.3517 33.0262 98.0912 32.8474 97.7847 32.7248C97.4782 32.592 97.1359 32.5256 96.7579 32.5256H96.6659C96.2879 32.5256 95.9457 32.592 95.6391 32.7248C95.3326 32.8474 95.067 33.0262 94.8422 33.2612C94.6277 33.486 94.4591 33.7567 94.3365 34.0734C94.2139 34.3902 94.1526 34.7375 94.1526 35.1156V35.4834C94.1526 35.8614 94.2139 36.2088 94.3365 36.5255C94.4591 36.8422 94.6277 37.1181 94.8422 37.3531C95.067 37.5778 95.3326 37.7566 95.6391 37.8894C95.9457 38.0121 96.2879 38.0734 96.6659 38.0734H96.7579ZM106.014 39.4067C105.421 39.4067 104.88 39.3096 104.389 39.1155C103.899 38.9214 103.475 38.6506 103.117 38.3032C102.77 37.9456 102.494 37.5267 102.29 37.0466C102.096 36.5664 101.999 36.0402 101.999 35.468V35.2688C101.999 34.6762 102.096 34.1347 102.29 33.6443C102.494 33.1437 102.775 32.7146 103.133 32.357C103.49 31.9892 103.914 31.7082 104.405 31.5141C104.895 31.3098 105.426 31.2076 105.999 31.2076H106.045C106.596 31.2076 107.097 31.2995 107.546 31.4834C108.006 31.6571 108.4 31.9074 108.727 32.2344C109.053 32.5613 109.309 32.9547 109.493 33.4144C109.677 33.864 109.769 34.3595 109.769 34.901V35.8512H103.547C103.628 36.4948 103.899 37.021 104.359 37.4297C104.819 37.8384 105.406 38.0427 106.121 38.0427H106.152C106.673 38.0427 107.143 37.9354 107.562 37.7209C107.991 37.5063 108.323 37.2407 108.558 36.9239L109.539 37.7975C109.161 38.3083 108.66 38.7068 108.037 38.9929C107.414 39.2687 106.76 39.4067 106.075 39.4067H106.014ZM108.313 34.6711C108.292 34.3544 108.221 34.0632 108.098 33.7976C107.976 33.5319 107.812 33.3072 107.608 33.1233C107.403 32.9291 107.163 32.781 106.887 32.6788C106.612 32.5664 106.31 32.5102 105.983 32.5102H105.968C105.335 32.5102 104.803 32.7095 104.374 33.1079C103.955 33.4962 103.695 34.0172 103.593 34.6711H108.313ZM113.989 39.3454C113.284 39.3454 112.707 39.1717 112.257 38.8243C111.818 38.4667 111.598 37.8741 111.598 37.0466V32.6175H110.541V31.5601C110.694 31.509 110.863 31.463 111.046 31.4221C111.241 31.3813 111.424 31.3506 111.598 31.3302V29.4758L113.115 29.2766V31.3149H115.705V32.6175H113.115V36.7707C113.115 37.2305 113.223 37.5472 113.437 37.7209C113.652 37.8946 113.953 37.9814 114.341 37.9814C114.444 37.9814 114.561 37.9763 114.694 37.9661C114.827 37.9559 114.96 37.9456 115.092 37.9354C115.235 37.915 115.368 37.8946 115.491 37.8741C115.624 37.8537 115.731 37.8333 115.813 37.8128V39.0695C115.71 39.1104 115.583 39.1512 115.429 39.1921C115.286 39.2228 115.128 39.2534 114.954 39.2841C114.791 39.3045 114.622 39.3198 114.449 39.33C114.285 39.3403 114.132 39.3454 113.989 39.3454ZM119.33 39.422C118.921 39.422 118.543 39.3658 118.195 39.2534C117.858 39.1308 117.567 38.9673 117.322 38.763C117.077 38.5484 116.883 38.2981 116.74 38.0121C116.607 37.7158 116.54 37.3888 116.54 37.0312V36.9546C116.54 35.2279 118.155 34.3646 121.383 34.3646H122.073V33.9202C122.073 33.4911 121.909 33.1539 121.582 32.9087C121.266 32.6533 120.826 32.5256 120.264 32.5256H120.234C119.805 32.5256 119.355 32.6022 118.885 32.7554C118.415 32.8985 117.986 33.0977 117.598 33.3531L116.939 32.2037C117.439 31.887 117.971 31.6367 118.533 31.4528C119.105 31.2587 119.697 31.1616 120.31 31.1616H120.372C120.811 31.1616 121.225 31.2178 121.613 31.3302C122.001 31.4426 122.338 31.6163 122.625 31.8512C122.911 32.076 123.135 32.3621 123.299 32.7095C123.462 33.0466 123.544 33.44 123.544 33.8895V37.8128C123.544 38.058 123.57 38.3135 123.621 38.5791C123.672 38.8345 123.738 39.0695 123.82 39.2841H122.318C122.267 39.1717 122.226 39.0286 122.195 38.8549C122.165 38.671 122.139 38.4922 122.119 38.3186C121.731 38.6762 121.296 38.952 120.816 39.1461C120.346 39.33 119.851 39.422 119.33 39.422ZM119.529 38.0887C120.05 38.0887 120.53 37.9865 120.969 37.7822C121.409 37.5778 121.777 37.3122 122.073 36.9853V35.514H121.567C120.341 35.514 119.447 35.6315 118.885 35.8665C118.323 36.0913 118.042 36.4438 118.042 36.9239V36.9699C118.042 37.2969 118.175 37.5676 118.441 37.7822C118.717 37.9865 119.079 38.0887 119.529 38.0887Z" fill="white"/>
</svg>
